<mxfile host="app.diagrams.net" agent="Mozilla/5.0 (Windows NT 10.0; Win64; x64) AppleWebKit/537.36 (KHTML, like Gecko) Chrome/130.0.0.0 Safari/537.36" version="24.8.6">
  <diagram name="Page-1" id="0b2dFRtXLKxJvV9CARaf">
    <mxGraphModel dx="1344" dy="557" grid="1" gridSize="10" guides="1" tooltips="1" connect="1" arrows="1" fold="1" page="1" pageScale="1" pageWidth="850" pageHeight="1100" math="0" shadow="0">
      <root>
        <mxCell id="0" />
        <mxCell id="1" parent="0" />
        <mxCell id="yGyMiiP-BRF1h5RzjoTI-9" style="edgeStyle=orthogonalEdgeStyle;rounded=0;orthogonalLoop=1;jettySize=auto;html=1;" edge="1" parent="1" source="yGyMiiP-BRF1h5RzjoTI-1">
          <mxGeometry relative="1" as="geometry">
            <mxPoint x="50" y="270" as="targetPoint" />
            <Array as="points">
              <mxPoint x="105" y="270" />
              <mxPoint x="105" y="271" />
            </Array>
          </mxGeometry>
        </mxCell>
        <mxCell id="yGyMiiP-BRF1h5RzjoTI-1" value="" style="rounded=1;whiteSpace=wrap;html=1;" vertex="1" parent="1">
          <mxGeometry x="160" y="160" width="330" height="220" as="geometry" />
        </mxCell>
        <mxCell id="yGyMiiP-BRF1h5RzjoTI-8" style="edgeStyle=orthogonalEdgeStyle;rounded=0;orthogonalLoop=1;jettySize=auto;html=1;" edge="1" parent="1" source="yGyMiiP-BRF1h5RzjoTI-2">
          <mxGeometry relative="1" as="geometry">
            <mxPoint x="240" y="270" as="targetPoint" />
          </mxGeometry>
        </mxCell>
        <mxCell id="yGyMiiP-BRF1h5RzjoTI-2" value="" style="image;sketch=0;aspect=fixed;html=1;points=[];align=center;fontSize=12;image=img/lib/mscae/Docker.svg;" vertex="1" parent="1">
          <mxGeometry x="310" y="180" width="73.17" height="60" as="geometry" />
        </mxCell>
        <mxCell id="yGyMiiP-BRF1h5RzjoTI-3" value="" style="shape=image;html=1;verticalAlign=top;verticalLabelPosition=bottom;labelBackgroundColor=#ffffff;imageAspect=0;aspect=fixed;image=https://cdn1.iconfinder.com/data/icons/unicons-line-vol-3/24/docker-128.png" vertex="1" parent="1">
          <mxGeometry x="300" y="270" width="80" height="80" as="geometry" />
        </mxCell>
        <mxCell id="yGyMiiP-BRF1h5RzjoTI-5" style="rounded=0;orthogonalLoop=1;jettySize=auto;html=1;" edge="1" parent="1" source="yGyMiiP-BRF1h5RzjoTI-4" target="yGyMiiP-BRF1h5RzjoTI-1">
          <mxGeometry relative="1" as="geometry" />
        </mxCell>
        <mxCell id="yGyMiiP-BRF1h5RzjoTI-7" style="edgeStyle=orthogonalEdgeStyle;rounded=0;orthogonalLoop=1;jettySize=auto;html=1;" edge="1" parent="1" source="yGyMiiP-BRF1h5RzjoTI-4" target="yGyMiiP-BRF1h5RzjoTI-3">
          <mxGeometry relative="1" as="geometry" />
        </mxCell>
        <mxCell id="yGyMiiP-BRF1h5RzjoTI-4" value="" style="editableCssRules=.*;html=1;shape=image;verticalLabelPosition=bottom;labelBackgroundColor=#ffffff;verticalAlign=top;aspect=fixed;imageAspect=0;image=data:image/svg+xml,PHN2ZyB4bWxucz0iaHR0cDovL3d3dy53My5vcmcvMjAwMC9zdmciIHhtbG5zOnY9Imh0dHBzOi8vdmVjdGEuaW8vbmFubyIgd2lkdGg9IjIwIiBoZWlnaHQ9IjE4IiBmaWxsLXJ1bGU9ImV2ZW5vZGQiIHZpZXdCb3g9IjAgMCAyMCAxOCI+JiN4YTsJPHN0eWxlIHR5cGU9InRleHQvY3NzIj4mI3hhOwkuc3Qwe2ZpbGw6IzQyODVmNDt9JiN4YTsJLnN0MXtmaWxsOiM2NjlkZjY7fSYjeGE7CS5zdDJ7ZmlsbDojYWVjYmZhO30mI3hhOwk8L3N0eWxlPiYjeGE7CTxwYXRoIGNsYXNzPSJzdDAiIGQ9Ik00IDhIMHYyaDR6Ii8+JiN4YTsJPHBhdGggY2xhc3M9InN0MiIgZD0iTTMgNGgxMHYxMEgzeiIvPiYjeGE7CTxwYXRoIGNsYXNzPSJzdDAiIGQ9Ik0yMCA4aC00LjY3djJIMjB6Ii8+JiN4YTsJPHBhdGggY2xhc3M9InN0MSIgZD0iTTE1IDJ2MTRINnYyaDExdi0yVjIgMEg2djJ6TTggNGg1djEwSDh6Ii8+JiN4YTs8L3N2Zz4=;fontColor=default;" vertex="1" parent="1">
          <mxGeometry x="150" y="250" width="30" height="27" as="geometry" />
        </mxCell>
        <mxCell id="yGyMiiP-BRF1h5RzjoTI-10" value="aws isp" style="ellipse;whiteSpace=wrap;html=1;" vertex="1" parent="1">
          <mxGeometry x="-70" y="230" width="120" height="80" as="geometry" />
        </mxCell>
        <mxCell id="yGyMiiP-BRF1h5RzjoTI-11" value="docker host" style="text;html=1;align=center;verticalAlign=middle;resizable=0;points=[];autosize=1;strokeColor=none;fillColor=none;" vertex="1" parent="1">
          <mxGeometry x="160" y="170" width="90" height="30" as="geometry" />
        </mxCell>
      </root>
    </mxGraphModel>
  </diagram>
</mxfile>
